<svg height="512pt" viewBox="0 0 512 512" width="512pt" xmlns="http://www.w3.org/2000/svg"><path d="m512 316c0 107.699219-88.300781 196-196 196s-195-88.300781-195-196 87.300781-195 195-195 196 87.300781 196 195zm0 0" fill="#f27281"/><path d="m512 316c0 107.699219-88.300781 196-196 196v-391c107.699219 0 196 87.300781 196 195zm0 0" fill="#e63950"/><path d="m211 241h90v30h-90zm0 0" fill="#596c76"/><path d="m331 241h90v30h-90zm0 0" fill="#465a61"/><path d="m316 301c-57.898438 0-105 47.101562-105 105v15h210v-15c0-57.898438-47.101562-105-105-105zm0 0" fill="#fff5f5"/><path d="m268.289062 0h-138.5l-30 31h-38.789062l-31 37.5v82.5l31 30h38.789062l21.210938 21.210938v68.789062h15c41.351562 0 75-33.648438 75-75v-15h93.296875zm0 0" fill="#ffbfab"/><path d="m0 31h61v150h-61zm0 0" fill="#596c76"/><path d="m421 406v15h-105v-120c57.898438 0 105 47.101562 105 105zm0 0" fill="#efe2dd"/></svg>