<svg height="512pt" viewBox="-9 0 512 512" width="512pt" xmlns="http://www.w3.org/2000/svg"><path d="m360.574219 472.738281-113.652344 19.632813-113.652344-19.632813c10.519531-46.535156 36.734375-70.703125 36.734375-70.703125h153.835938s26.210937 24.167969 36.734375 70.703125zm0 0" fill="#fff3e4"/><path d="m364.871094 512h-235.898438c0-14.480469 1.65625-27.570312 4.296875-39.261719h227.304688c2.640625 11.691407 4.296875 24.78125 4.296875 39.261719zm0 0" fill="#ffcabd"/><path d="m175.003906 383.453125h32.953125v88.527344h-32.953125zm0 0" fill="#00bbc9"/><path d="m285.886719 383.453125h32.953125v88.527344h-32.953125zm0 0" fill="#00bbc9"/><path d="m325.378906 512v-32.941406c0-12.613282-10.410156-22.78125-23.015625-22.386719-17.09375.535156-40.023437 3.027344-55.441406 11.625-15.417969-8.597656-38.347656-11.089844-55.441406-11.625-12.605469-.394531-23.015625 9.773437-23.015625 22.386719v32.941406zm0 0" fill="#1fd7c3"/><path d="m22.160156 224.765625c0-60.039063 23.378906-116.480469 65.832032-158.933594 42.449218-42.453125 98.890624-65.832031 158.929687-65.832031 60.035156 0 116.480469 23.378906 158.929687 65.832031 42.453126 42.453125 65.832032 98.894531 65.832032 158.933594zm0 0" fill="#ff7f5a"/><path d="m267.523438.941406c-6.808594-.617187-13.679688-.941406-20.601563-.941406-60.039063 0-116.480469 23.378906-158.929687 65.832031-42.453126 42.453125-65.832032 98.894531-65.832032 158.929688h41.207032c0-60.035157 23.378906-116.476563 65.832031-158.929688 37.554687-37.558593 86.066406-60.171875 138.324219-64.890625zm0 0" fill="#ff5d29"/><path d="m81.566406 259.726562c-26.777344-3.300781-54.339844 8.515626-69.949218 32.699219-14.046876 21.761719-14.984376 48.210938-4.816407 70.078125 2.152344 4.625 6.789063 7.617188 11.886719 7.671875 24.117188.265625 47.832031-11.480469 61.878906-33.238281 15.613282-24.1875 15.03125-54.171875 1-77.210938zm0 0" fill="#ff7f5a"/><path d="m37.707031 362.503906c-10.167969-21.867187-9.230469-48.316406 4.8125-70.078125 9.816407-15.207031 24.359375-25.519531 40.460938-30.261719-.457031-.820312-.925781-1.632812-1.414063-2.4375-26.777344-3.296874-54.339844 8.515626-69.949218 32.703126-14.046876 21.757812-14.984376 48.207031-4.816407 70.074218 2.152344 4.625 6.789063 7.617188 11.886719 7.675782 7.585938.082031 15.132812-1.027344 22.351562-3.257813-1.386718-1.203125-2.53125-2.695313-3.332031-4.417969zm0 0" fill="#ff5d29"/><path d="m412.277344 259.726562c26.773437-3.300781 54.335937 8.515626 69.949218 32.699219 14.046876 21.761719 14.984376 48.210938 4.8125 70.078125-2.148437 4.625-6.785156 7.617188-11.882812 7.671875-24.117188.265625-47.835938-11.480469-61.878906-33.238281-15.613282-24.1875-15.03125-54.171875-1-77.210938zm0 0" fill="#ff7f5a"/><path d="m444.179688 336.933594c-15.066407-23.339844-15.046876-52.078125-2.414063-74.769532-9.503906-2.800781-19.550781-3.664062-29.488281-2.4375-14.03125 23.042969-14.613282 53.023438.996094 77.207032 14.046874 21.761718 37.765624 33.503906 61.878906 33.242187 3.203125-.035156 6.222656-1.226562 8.558594-3.257812-15.730469-4.859375-29.902344-15.066407-39.53125-29.984375zm0 0" fill="#ff5d29"/><path d="m484.308594 239.597656c0 24.402344-19.78125 44.183594-44.183594 44.183594-24.398438 0-44.179688-19.78125-44.179688-44.183594 0-24.398437 19.78125-44.179687 44.179688-44.179687 24.402344 0 44.183594 19.78125 44.183594 44.179687zm0 0" fill="#ffcabd"/><path d="m437.917969 195.46875c-55.128907-55.539062-126.574219-26.574219-186.394531-116.476562-2.195313-3.296876-7.011719-3.296876-9.203126 0-59.820312 89.898437-131.265624 60.9375-186.398437 116.476562-1.679687 11.058594-2.425781 22.421875-2.148437 34.011719 2.496093 104.476562 88.613281 188.472656 193.121093 188.488281 106.714844.015625 193.230469-86.492188 193.230469-193.207031 0-9.957031-.753906-19.738281-2.207031-29.292969zm0 0" fill="#ffdcce"/><path d="m84.679688 229.480469c-.230469-9.527344.234374-39.777344 1.34375-56.386719-10.429688 5.617188-20.511719 12.71875-30.101563 22.375v.003906c-.71875-.035156-1.453125-.054687-2.207031-.054687-24.398438 0-44.179688 19.78125-44.179688 44.179687 0 24.402344 19.78125 44.183594 44.179688 44.183594 3.292968 0 6.246094-.371094 8.910156-1.054688 24.75 78.355469 98.277344 135.230469 184.269531 135.242188 5.226563 0 10.40625-.210938 15.527344-.621094-97.449219-7.769531-175.371094-88.5625-177.742187-187.867187zm0 0" fill="#ffcabd"/><path d="m343.53125 232.390625c-4.269531 0-7.726562-3.457031-7.726562-7.726563v-18.785156c0-4.265625 3.457031-7.722656 7.726562-7.722656s7.726562 3.457031 7.726562 7.722656v18.785156c0 4.269532-3.460937 7.726563-7.726562 7.726563zm0 0" fill="#444f5c"/><path d="m356.324219 260.003906h-25.585938c-4.269531 0-7.726562-3.460937-7.726562-7.726562 0-4.269532 3.457031-7.726563 7.726562-7.726563h25.585938c4.265625 0 7.726562 3.457031 7.726562 7.726563 0 4.265625-3.460937 7.726562-7.726562 7.726562zm0 0" fill="#ff8997"/><path d="m150.3125 232.390625c-4.269531 0-7.726562-3.457031-7.726562-7.726563v-18.785156c0-4.265625 3.457031-7.722656 7.726562-7.722656s7.726562 3.457031 7.726562 7.722656v18.785156c0 4.269532-3.457031 7.726563-7.726562 7.726563zm0 0" fill="#444f5c"/><path d="m163.105469 260.003906h-25.585938c-4.265625 0-7.726562-3.460937-7.726562-7.726562 0-4.269532 3.460937-7.726563 7.726562-7.726563h25.585938c4.265625 0 7.726562 3.457031 7.726562 7.726563 0 4.265625-3.460937 7.726562-7.726562 7.726562zm0 0" fill="#ff8997"/><path d="m246.921875 258.941406c-8.964844 0-17.382813-3.75-23.097656-10.289062-2.808594-3.210938-2.480469-8.089844.734375-10.902344 3.210937-2.808594 8.09375-2.476562 10.902344.734375 2.777343 3.179687 6.957031 5.003906 11.460937 5.003906s8.683594-1.824219 11.460937-5.003906c2.8125-3.214844 7.691407-3.542969 10.902344-.734375 3.214844 2.808594 3.542969 7.691406.734375 10.902344-5.714843 6.539062-14.132812 10.289062-23.097656 10.289062zm0 0" fill="#444f5c"/><path d="m140.957031 80.425781c-3.914062-3.910156-8.007812-6.515625-13.816406-8.191406-3.457031-.996094-8.375-1.792969-13.746094-2.429687 5.359375-.632813 10.277344-1.433594 13.753907-2.433594 5.804687-1.675782 9.894531-4.289063 13.808593-8.199219 9.664063-9.667969 8.578125-21.339844 1.339844-28.578125-7.125-7.121094-14.554687-5.105469-17.375-3.925781 1.183594-2.820313 3.1875-10.261719-3.933594-17.382813-7.242187-7.242187-18.90625-8.316406-28.570312 1.351563-3.914063 3.910156-6.519531 8.007812-8.191407 13.8125-.996093 3.457031-1.796874 8.375-2.429687 13.746093-.636719-5.359374-1.433594-10.273437-2.4375-13.753906-1.675781-5.804687-4.285156-9.894531-8.199219-13.804687-9.664062-9.667969-21.339844-8.582031-28.578125-1.339844-7.121093 7.121094-5.105469 14.550781-3.925781 17.371094-2.820312-1.179688-10.261719-3.183594-17.378906 3.933593-7.242188 7.242188-8.316406 18.90625 1.347656 28.570313 3.914062 3.914063 8.007812 6.523437 13.816406 8.195313 3.457032.996093 8.371094 1.796874 13.742188 2.429687-5.359375.632813-10.273438 1.433594-13.75 2.433594-5.804688 1.679687-9.894532 4.289062-13.804688 8.199219-9.667968 9.667968-8.582031 21.339843-1.339844 28.582031 7.117188 7.117187 14.546876 5.101562 17.371094 3.921875-1.179687 2.820312-3.183594 10.265625 3.933594 17.382812 7.238281 7.238282 18.902344 8.316406 28.570312-1.347656 3.910157-3.914062 6.519532-8.011719 8.191407-13.816406 1-3.457032 1.796875-8.371094 2.429687-13.746094.636719 5.363281 1.433594 10.277344 2.4375 13.75 1.675782 5.808594 4.285156 9.898438 8.199219 13.808594 9.664063 9.667968 21.335937 8.582031 28.578125 1.339844 7.121094-7.121094 5.105469-14.550782 3.925781-17.371094 2.820313 1.179687 10.261719 3.183594 17.378907-3.933594 7.238281-7.242188 8.316406-18.90625-1.347657-28.574219zm0 0" fill="#1fd7c3"/></svg>